<svg width="64" height="64" viewBox="0 0 64 64" fill="none" xmlns="http://www.w3.org/2000/svg">
  <rect width="64" height="64" rx="12" fill="#421D24" />
  <path
    fill-rule="evenodd"
    clip-rule="evenodd"
    d="M12.6449 5.37454C14.1291 5.37454 15.3322 4.17141 15.3322 2.68727C15.3322 1.20313 14.1291 0 12.6449 0C11.1608 0 9.95767 1.20313 9.95767 2.68727C9.95767 2.88914 9.97993 3.08582 10.0221 3.27498C10.1034 3.63943 10.0779 4.03564 9.85072 4.33202C9.50365 4.78485 8.84405 4.8297 8.30273 4.64944C8.03569 4.56051 7.75001 4.51235 7.45308 4.51235C5.96895 4.51235 4.76581 5.71548 4.76581 7.19962C4.76581 7.46426 4.80407 7.71996 4.87534 7.96149C5.08124 8.65923 5.17445 9.46975 4.7319 10.0472L4.68089 10.1138C4.24349 10.6844 3.44883 10.8108 2.72989 10.7996C2.71571 10.7994 2.7015 10.7993 2.68727 10.7993C1.20313 10.7993 0 12.0024 0 13.4865C0 14.9707 1.20313 16.1738 2.68727 16.1738C4.17141 16.1738 5.37454 14.9707 5.37454 13.4865C5.37454 13.3059 5.35673 13.1295 5.32276 12.9589C5.19808 12.3327 5.17437 11.637 5.56281 11.1302L6.1003 10.4289C6.41001 10.0248 6.94397 9.88685 7.45308 9.88685C7.9624 9.88685 8.4966 10.0248 8.80643 10.4291L9.41984 11.2294C9.79779 11.7225 9.78579 12.3964 9.67586 13.008C9.64795 13.1633 9.63337 13.3232 9.63337 13.4865C9.63337 14.9707 10.8365 16.1738 12.3206 16.1738C13.8048 16.1738 15.0079 14.9707 15.0079 13.4865C15.0079 12.0024 13.8048 10.7993 12.3206 10.7993C12.2921 10.7993 12.2637 10.7997 12.2354 10.8006C11.4997 10.8235 10.6795 10.7058 10.2317 10.1216L10.1744 10.0468C9.7319 9.46943 9.82505 8.659 10.0309 7.96132C10.1021 7.71983 10.1404 7.46419 10.1404 7.19962C10.1404 7.1147 10.1364 7.0307 10.1287 6.9478C10.0912 6.54464 10.1398 6.12194 10.3861 5.80058C10.7798 5.28693 11.5145 5.21091 12.1507 5.32919C12.3109 5.35897 12.4761 5.37454 12.6449 5.37454ZM20.0004 8.91127C20.0004 10.3955 18.7972 11.5986 17.3131 11.5986C15.829 11.5986 14.6258 10.3955 14.6258 8.91127C14.6258 7.42713 15.829 6.224 17.3131 6.224C18.7972 6.224 20.0004 7.42713 20.0004 8.91127Z"
    fill="white"
    transform="translate(12 16) scale(2)"
  />
</svg>
